<?xml version="1.0" standalone="no"?>
<!DOCTYPE svg PUBLIC "-//W3C//DTD SVG 20010904//EN"
 "http://www.w3.org/TR/2001/REC-SVG-20010904/DTD/svg10.dtd">
<svg version="1.0" xmlns="http://www.w3.org/2000/svg"
 width="256.000000pt" height="256.000000pt" viewBox="0 0 256.000000 256.000000"
 preserveAspectRatio="xMidYMid meet">
<metadata>
Created by potrace 1.11, written by Peter Selinger 2001-2013
</metadata>
<g transform="translate(0.000000,256.000000) scale(0.100000,-0.100000)"
fill="#000000" stroke="none">
<path d="M1928 2425 c-2 -2 -27 -6 -57 -9 -63 -7 -165 -42 -182 -62 -6 -8 -18
-14 -25 -14 -8 0 -14 -4 -14 -10 0 -5 -4 -10 -9 -10 -12 0 -67 -55 -89 -88
-14 -21 -21 -23 -61 -18 -25 3 -59 8 -76 12 -49 11 -255 6 -322 -9 l-62 -13
-55 57 c-150 158 -372 198 -571 103 -59 -28 -164 -118 -185 -160 -8 -16 -22
-40 -31 -54 -60 -92 -69 -274 -19 -399 32 -81 87 -156 154 -208 25 -19 27 -25
22 -60 -15 -86 -18 -122 -18 -203 -1 -47 2 -101 5 -120 21 -134 23 -121 -31
-165 -27 -22 -57 -53 -68 -70 -63 -104 -75 -131 -91 -215 -6 -33 -6 -116 1
-160 20 -138 126 -285 253 -348 84 -42 140 -55 233 -55 149 1 256 55 383 191
15 16 24 18 55 11 95 -22 246 -29 337 -15 131 19 129 20 149 -11 20 -31 102
-98 152 -125 80 -42 213 -62 309 -45 189 34 344 183 387 372 41 180 -24 364
-176 493 -15 12 -24 27 -21 32 15 23 28 126 29 220 2 79 -15 218 -29 240 -3 5
9 22 26 37 75 66 121 126 154 203 11 24 20 47 21 50 0 3 4 26 8 52 31 187 -37
359 -191 480 -41 32 -193 97 -193 82 0 -3 -9 0 -20 6 -12 6 -20 7 -20 1 0 -6
-11 -6 -29 -1 -16 4 -31 7 -33 5z"/>
</g>
</svg>
